# xmcd CD database file
#
# Track frame offsets:
#	150
#	14730
#	25572
#	57807
#	76475
#	102650
#	118745
#	139062
#	160825
#	176542
#	199535
#	216417
#	239937
#	256357
#	277147
#	295222
#	307065
#
# Disc length: 4371 seconds
#
# Revision: 0
# Processed by: cddbd v1.5.1PL0 Copyright (c) Steve Scherf et al.
# Submitted via: CDex 1.51
#
DISCID=08111111
DTITLE=Bill Allred's Classic Jazz Band - Versatility
DYEAR=1999
DGENRE=Jazz
TTITLE0=Tiger Rag
TTITLE1=Fascinating Rhythm
TTITLE2=The Beale St. Blues
TTITLE3=I'm Shoutin' Again
TTITLE4=On the Trail
TTITLE5=Si Tu Vois Ma Mere
TTITLE6=Dardenella
TTITLE7=The Blues in the Night
TTITLE8=King Porter Stomp
TTITLE9=Cherokee
TTITLE10=Basin Street Blues
TTITLE11=Gin Mill Blues
TTITLE12=In the Mood
TTITLE13=Dark Town Strutters Ball
TTITLE14=High Society
TTITLE15=Milenburg Joys
TTITLE16=Farewell Blues
EXTD=YEAR: 1999
EXTT0=
EXTT1=
EXTT2=
EXTT3=
EXTT4=
EXTT5=
EXTT6=
EXTT7=
EXTT8=
EXTT9=
EXTT10=
EXTT11=
EXTT12=
EXTT13=
EXTT14=
EXTT15=
EXTT16=
PLAYORDER=
